# xmcd
#
# Track frame offsets:
#	150
#	20937
#	42535
#	63246
#	80323
#	100584
#	111979
#	132443
#	150140
#	176927
#	193268
#	216558
#	227783
#	267440
#	295949
#
# Disc length: 4269 seconds
#
# Revision: 1
# Processed by: cddbd v1.5.2PL0 Copyright (c) Steve Scherf et al.
# Submitted via: EasyCDDAExtractor 15.2.0.1
#
DISCID=e210ab0f
DTITLE=Stevie Salas - The Essential  Stevie Salas Volume 1 CD2
DYEAR=2006
DGENRE=Rock and Blues
TTITLE0=I Once Was There
TTITLE1=Blind
TTITLE2=May God Bless You
TTITLE3=Just Like That
TTITLE4=Amelia
TTITLE5=I'm Missing You
TTITLE6=You And I
TTITLE7=Caught In The Middle Of It   
TTITLE8=I Was Made To Love Her (Featuring Glenn Hughes)
TTITLE9=Indian Chief
TTITLE10=A Dedecation To You (Featuring Mike Garson)
TTITLE11=Trail Of Tears
TTITLE12=Too Many Mountains (Paris Bootleg)
TTITLE13=Fear (Paris Bootleg)
TTITLE14=I Once Was There (Paris Bootleg)
EXTD=
EXTT0=
EXTT1=
EXTT2=
EXTT3=
EXTT4=
EXTT5=
EXTT6=
EXTT7=
EXTT8=
EXTT9=
EXTT10=
EXTT11=
EXTT12=
EXTT13=
EXTT14=
PLAYORDER=
